<?xml version="1.0" standalone="no"?>
<!DOCTYPE svg PUBLIC "-//W3C//DTD SVG 20010904//EN"
 "http://www.w3.org/TR/2001/REC-SVG-20010904/DTD/svg10.dtd">
<svg version="1.0" xmlns="http://www.w3.org/2000/svg"
 width="310.000000pt" height="310.000000pt" viewBox="0 0 310.000000 310.000000"
 preserveAspectRatio="xMidYMid meet">
<metadata>
Created by potrace 1.11, written by Peter Selinger 2001-2013
</metadata>
<g transform="translate(0.000000,310.000000) scale(0.100000,-0.100000)"
fill="#000000" stroke="none">
<path d="M1205 2662 c-155 -46 -308 -155 -430 -304 -103 -127 -168 -267 -220
-478 -23 -93 -80 -247 -131 -356 -94 -199 -105 -249 -104 -484 1 -279 27 -367
165 -555 105 -142 127 -216 100 -330 -8 -36 -15 -68 -15 -71 0 -11 29 -2 43
14 15 16 15 34 7 158 -9 137 -38 660 -43 781 -3 94 6 100 167 107 71 3 131 8
134 10 2 3 -4 27 -14 55 -17 49 -17 53 9 252 32 236 59 328 130 435 27 41 70
89 100 113 64 49 183 105 281 131 40 10 94 28 120 40 61 26 83 25 181 -5 295
-89 419 -172 507 -340 65 -126 89 -222 95 -380 4 -94 10 -145 18 -155 11 -12
9 -24 -10 -70 -31 -70 -31 -80 0 -80 18 0 25 5 25 20 0 26 17 26 25 0 8 -24
27 -29 119 -32 60 -3 71 -6 87 -28 18 -24 18 -36 2 -315 l-16 -290 49 -42 c27
-24 56 -43 66 -43 23 0 23 0 -7 56 -37 69 -33 115 17 210 102 195 118 247 118
380 -1 158 -54 341 -167 567 -30 61 -75 171 -98 242 -24 72 -59 168 -78 215
-113 276 -280 459 -495 543 -69 26 -85 29 -162 24 -63 -3 -100 -11 -142 -30
l-58 -27 -71 38 c-65 33 -80 37 -158 39 -59 2 -105 -3 -146 -15z"/>
<path d="M1104 1734 c-45 -16 -113 -68 -102 -79 4 -4 29 0 57 10 57 19 173 22
214 6 42 -16 82 -13 108 8 21 17 22 21 9 34 -18 17 -129 37 -196 36 -27 0 -67
-7 -90 -15z"/>
<path d="M1827 1737 c-72 -15 -90 -38 -51 -63 24 -17 31 -17 103 -2 80 16 163
12 229 -12 71 -26 44 20 -35 60 -56 29 -154 35 -246 17z"/>
<path d="M1180 1533 c-60 -22 -98 -44 -128 -75 -9 -10 -22 -18 -29 -18 -7 0
-13 -7 -13 -15 0 -8 -6 -15 -12 -15 -10 0 -10 -2 0 -9 9 -5 26 4 49 26 45 41
53 41 53 3 0 -38 23 -84 52 -104 27 -19 92 -22 85 -3 -2 6 8 19 22 28 30 18
47 19 45 2 -3 -21 4 -15 21 17 18 34 19 83 4 112 -10 18 -9 20 6 15 9 -4 18
-7 20 -7 3 0 16 -17 30 -37 16 -24 25 -31 25 -21 0 28 -59 87 -98 98 -39 10
-107 12 -132 3z m18 -56 c2 -9 -4 -20 -12 -23 -21 -8 -46 13 -39 32 8 20 47
13 51 -9z"/>
<path d="M1839 1530 c-40 -12 -75 -38 -87 -66 -19 -40 -14 -52 8 -17 26 43 82
75 60 34 -24 -46 -3 -124 42 -155 27 -19 109 -23 90 -4 -9 9 -4 17 21 35 28
21 32 22 38 7 5 -15 8 -14 22 7 9 13 17 38 17 56 0 18 4 33 8 33 4 0 23 -15
43 -34 22 -22 40 -32 48 -27 10 6 9 10 -4 15 -9 3 -13 10 -10 16 3 5 0 10 -7
10 -8 0 -21 8 -30 18 -61 65 -177 97 -259 72z m64 -42 c7 -21 -4 -38 -23 -38
-23 0 -34 16 -26 35 7 18 43 20 49 3z"/>
</g>
</svg>
